<svg width="450" height="450" viewBox="0 0 450 450" fill="none" xmlns="http://www.w3.org/2000/svg">
<path d="M208.185 52.6648C195.193 55.3517 188.422 59.0768 166.951 75.0154C161.766 78.9237 153.958 84.664 149.567 87.7784C145.236 90.8929 140.417 94.4958 138.892 95.7172C136.33 97.7324 121.203 108.724 105.953 119.533C94.8518 127.411 95.4618 126.617 81.3104 154.83C73.4417 170.525 68.2569 181.7 67.4029 184.692L66 189.455L66.061 257.851C66.122 309.819 66.305 327.345 66.915 330.826C69.7818 347.986 80.5784 367.039 93.8149 378.52C104.672 387.863 118.275 394.397 132.487 397.084C136.452 397.878 150.116 398 224.411 398C309.563 398 311.759 398 317.676 396.779C347.443 390.672 369.646 371.436 379.466 343.162C383.98 330.154 383.675 335.406 383.919 262.125C384.102 216.02 383.98 194.646 383.492 191.043C382.089 180.54 381.784 179.807 354.945 132.052C344.759 113.854 340.001 105.976 337.195 102.557C332.376 96.5721 324.386 91.9921 302.975 83.0152C297.425 80.6946 282.236 74.2215 269.122 68.6033C244.357 57.9165 236.793 54.9243 230.693 53.2754C225.631 51.8709 213.492 51.5656 208.185 52.6648ZM222.642 73.4276C234.597 75.9314 243.503 84.9693 243.503 94.4958C243.503 99.3812 241.917 102.007 237.83 103.778C233.011 105.915 231.73 105.244 225.326 97.3049C221.056 91.9921 212.76 90.5875 203.671 93.6409C198.67 95.2897 194.827 97.3049 188.117 101.641C182.261 105.488 180.126 107.87 176.955 114.159C171.465 125.091 164.816 129.976 153.531 131.442C148.042 132.174 146.883 132.602 142.674 135.044C133.585 140.357 110.833 150.067 107.356 150.067C105.16 150.067 103.879 148.785 104.428 147.014C104.611 146.342 106.502 144.632 108.515 143.289C114.371 139.258 143.406 118.251 159.021 106.709C190.374 83.5037 193.729 81.061 198.182 78.3741C206.904 73.0612 214.163 71.5956 222.642 73.4276ZM320.177 112.938C321.458 113.671 323.166 115.259 323.898 116.48L325.24 118.617V175.715V232.813L323.288 236.966C319.933 244.049 317.249 246.553 312.979 246.553C309.99 246.553 307.855 245.088 306.391 242.034C305.537 240.141 305.415 234.218 305.415 181.517C305.415 141.457 305.598 122.281 306.086 120.51C306.879 117.335 309.807 113.61 312.369 112.45C315.114 111.289 317.432 111.411 320.177 112.938ZM196.047 158.128C202.452 162.403 201.72 173.273 194.827 176.57C192.936 177.425 189.459 177.547 165.548 177.547H138.465L136.391 176.143C133.219 174.005 131.572 171.135 131.572 167.777C131.572 162.525 134.5 158.128 138.892 156.845C140.234 156.479 151.092 156.296 167.317 156.357L193.546 156.479L196.047 158.128ZM264.852 159.899C269.305 161.548 274.307 166.189 276.198 170.341C278.332 175.044 278.21 182.066 276.015 186.829C274.124 190.982 269.976 195.196 265.95 197.211C263.51 198.371 262.046 198.615 257.227 198.615C250.457 198.615 247.041 197.333 242.771 193.058C231.852 182.127 236.732 163.746 251.738 159.166C254.848 158.25 261.375 158.555 264.852 159.899ZM103.331 170.219C104.428 170.83 105.77 172.112 106.38 173.089C107.417 174.677 107.478 178.036 107.478 237.088C107.478 288.506 107.356 299.621 106.624 300.903C106.197 301.758 102.355 307.987 98.1457 314.826C91.802 325.025 90.277 327.162 89.2401 327.04L87.9591 326.857V255.713V184.57L89.6061 181.089C93.2049 173.395 97.1088 169.059 100.464 168.998C100.952 168.998 102.233 169.547 103.331 170.219ZM182.017 198.249C186.653 200.386 189.337 206.493 187.69 211.379C186.104 216.203 182.139 219.195 177.321 219.195C171.221 219.195 166.341 214.493 166.341 208.447C166.341 204.844 167.439 202.707 170.672 199.959C174.271 196.845 177.748 196.356 182.017 198.249ZM277.235 224.813C285.469 229.149 285.469 239.958 277.235 244.172C275.1 245.271 273.331 245.332 252.348 245.332C227.217 245.332 226.912 245.271 223.923 241.363C222.581 239.531 222.154 238.309 221.971 235.317C221.727 230.431 223.435 227.317 227.339 225.302C230.022 223.958 230.388 223.958 252.835 223.958C271.257 223.958 275.893 224.142 277.235 224.813ZM195.437 245.454C198.182 246.981 200.012 249.912 200.378 253.332C200.744 257.24 200.256 258.95 197.938 261.576C194.461 265.545 194.766 265.484 165.609 265.484C139.38 265.484 139.197 265.423 136.818 264.08C133.28 262.064 131.999 259.988 131.694 255.835C131.328 250.523 134.134 246.187 138.892 244.782C140.234 244.416 151.092 244.233 167.256 244.294C190.862 244.416 193.668 244.538 195.437 245.454ZM295.961 265.85C300.292 268.049 302.305 274.278 300.292 279.102C299.377 281.362 295.656 284.842 293.643 285.331C292.911 285.514 277.844 285.575 260.155 285.514C228.68 285.331 228.009 285.331 226.302 284.049C221.849 280.751 220.568 275.255 223.069 270.369C225.387 265.85 226.973 265.24 237.708 264.812C242.893 264.629 257.593 264.446 270.342 264.507C292.484 264.568 293.643 264.629 295.961 265.85ZM195.376 286.186C202.574 290.277 201.964 300.781 194.339 304.75C192.448 305.727 190.069 305.788 164.999 305.666C138.465 305.483 137.733 305.422 136.025 304.201C130.352 299.987 129.925 292.109 135.11 287.224C136.147 286.308 137.855 285.27 139.014 285.026C140.112 284.72 152.678 284.537 166.951 284.598L192.875 284.72L195.376 286.186ZM352.993 295.712C354.823 297.667 354.823 299.987 352.81 304.018C348.663 312.506 341.526 317.574 329.875 320.139C320.238 322.277 318.774 323.315 311.393 333.818C307.977 338.643 303.646 342.123 298.706 344.078C296.144 345.116 291.203 345.177 228.558 345.482C161.278 345.788 161.156 345.788 158.106 347.131C156.459 347.803 153.836 349.146 152.312 350.001C148.164 352.383 146.029 352.139 142.735 348.841C141.271 347.314 139.197 345.665 138.099 345.116C133.585 342.856 131.572 339.742 131.572 335.223C131.572 332.902 131.938 331.681 133.341 329.788C136.818 325.025 131.145 325.33 214.102 325.33C291.996 325.33 290.288 325.391 295.473 322.643C297.669 321.544 300.414 318.368 303.829 313.117C305.72 310.185 307.245 308.598 309.746 307.132C314.199 304.445 315.846 304.079 326.155 303.651C334.206 303.285 335.304 303.102 338.659 301.514C340.672 300.537 343.539 298.521 345.064 296.995C348.297 293.636 350.676 293.27 352.993 295.712Z" fill="black"/>
</svg>
