<svg width="450" height="450" viewBox="0 0 450 450" fill="none" xmlns="http://www.w3.org/2000/svg">
<path d="M211.44 24.5168C201.348 26.6058 196.089 29.5019 179.412 41.8935C175.384 44.932 169.32 49.3948 165.909 51.8162C162.545 54.2375 158.802 57.0387 157.617 57.9882C155.628 59.555 143.878 68.1008 132.033 76.5043C123.41 82.6288 123.884 82.0116 112.892 103.946C106.78 116.148 102.753 124.836 102.09 127.162L101 130.866L101.047 184.04C101.095 224.443 101.237 238.069 101.711 240.775C103.937 254.116 112.323 268.929 122.605 277.855C131.038 285.119 141.603 290.199 152.643 292.288C155.722 292.905 166.335 293 224.042 293C290.183 293 291.888 293 296.484 292.05C319.605 287.303 336.851 272.347 344.479 250.366C347.985 240.253 347.748 244.336 347.937 187.363C348.079 151.518 347.985 134.901 347.606 132.1C346.516 123.934 346.279 123.364 325.432 86.2371C317.52 72.0889 313.825 65.9644 311.645 63.3056C307.902 58.6529 301.696 55.0921 285.066 48.113C280.754 46.3088 268.957 41.2763 258.771 36.9084C239.535 28.5999 233.66 26.2735 228.922 24.9916C224.99 23.8996 215.561 23.6622 211.44 24.5168ZM222.668 40.6591C231.954 42.6056 238.872 49.6322 238.872 57.0387C238.872 60.8368 237.64 62.8784 234.466 64.2552C230.723 65.9169 229.728 65.3946 224.753 59.2226C221.436 55.0921 214.993 54.0001 207.933 56.374C204.048 57.6559 201.064 59.2226 195.852 62.5935C191.304 65.5845 189.645 67.4362 187.182 72.3263C182.918 80.8247 177.753 84.6229 168.988 85.7623C164.724 86.3321 163.824 86.6644 160.555 88.5635C153.495 92.694 135.823 100.243 133.123 100.243C131.417 100.243 130.422 99.2458 130.849 97.869C130.991 97.3467 132.459 96.0174 134.023 94.9729C138.571 91.8394 161.123 75.5073 173.252 66.5341C197.605 48.4928 200.211 46.5937 203.669 44.5047C210.445 40.3742 216.083 39.2347 222.668 40.6591ZM298.427 71.3768C299.422 71.9465 300.748 73.1809 301.317 74.1304L302.359 75.7921V120.183V164.574L300.843 167.803C298.237 173.31 296.152 175.257 292.836 175.257C290.514 175.257 288.856 174.117 287.719 171.743C287.056 170.272 286.961 165.666 286.961 124.694C286.961 93.5486 287.103 78.6408 287.482 77.2639C288.098 74.7951 290.372 71.899 292.362 70.9969C294.494 70.0949 296.295 70.1898 298.427 71.3768ZM202.011 106.51C206.986 109.833 206.417 118.284 201.064 120.848C199.595 121.513 196.894 121.608 178.322 121.608H157.286L155.675 120.516C153.211 118.854 151.932 116.622 151.932 114.011C151.932 109.928 154.206 106.51 157.617 105.513C158.66 105.228 167.093 105.086 179.696 105.133L200.069 105.228L202.011 106.51ZM255.454 107.887C258.913 109.169 262.798 112.777 264.267 116.005C265.925 119.661 265.83 125.121 264.125 128.824C262.656 132.053 259.434 135.328 256.307 136.895C254.412 137.797 253.275 137.987 249.532 137.987C244.273 137.987 241.62 136.99 238.303 133.667C229.822 125.168 233.613 110.878 245.268 107.317C247.684 106.605 252.754 106.842 255.454 107.887ZM129.996 115.91C130.849 116.385 131.891 117.382 132.365 118.142C133.17 119.376 133.217 121.987 133.217 167.898C133.217 207.874 133.123 216.514 132.554 217.511C132.222 218.176 129.238 223.019 125.969 228.336C121.041 236.265 119.857 237.927 119.051 237.832L118.056 237.689V182.378V127.067L119.336 124.361C122.131 118.379 125.163 115.008 127.769 114.961C128.148 114.961 129.143 115.388 129.996 115.91ZM191.114 137.702C194.715 139.364 196.8 144.112 195.52 147.91C194.288 151.661 191.209 153.987 187.466 153.987C182.728 153.987 178.938 150.331 178.938 145.631C178.938 142.83 179.791 141.168 182.302 139.032C185.097 136.61 187.798 136.231 191.114 137.702ZM265.072 158.355C271.468 161.726 271.468 170.129 265.072 173.405C263.414 174.26 262.04 174.307 245.742 174.307C226.222 174.307 225.985 174.26 223.663 171.221C222.621 169.797 222.289 168.847 222.147 166.521C221.958 162.723 223.284 160.301 226.316 158.735C228.401 157.69 228.685 157.69 246.121 157.69C260.429 157.69 264.03 157.833 265.072 158.355ZM201.537 174.402C203.669 175.589 205.091 177.868 205.375 180.527C205.659 183.565 205.28 184.895 203.48 186.936C200.779 190.022 201.016 189.975 178.369 189.975C157.996 189.975 157.854 189.927 156.007 188.883C153.259 187.316 152.264 185.702 152.027 182.473C151.742 178.343 153.922 174.972 157.617 173.88C158.66 173.595 167.093 173.453 179.648 173.5C197.984 173.595 200.163 173.69 201.537 174.402ZM279.617 190.259C282.981 191.969 284.545 196.811 282.981 200.562C282.271 202.319 279.38 205.025 277.817 205.405C277.248 205.547 265.546 205.595 251.806 205.547C227.359 205.405 226.838 205.405 225.511 204.408C222.052 201.844 221.057 197.571 223 193.773C224.8 190.259 226.032 189.785 234.371 189.452C238.398 189.31 249.816 189.168 259.718 189.215C276.917 189.262 277.817 189.31 279.617 190.259ZM201.49 206.069C207.081 209.25 206.607 217.416 200.685 220.502C199.216 221.262 197.368 221.31 177.895 221.215C157.286 221.072 156.717 221.025 155.391 220.075C150.984 216.799 150.653 210.675 154.68 206.876C155.485 206.164 156.812 205.357 157.712 205.167C158.565 204.93 168.325 204.787 179.412 204.835L199.547 204.93L201.49 206.069ZM323.916 213.476C325.338 214.995 325.338 216.799 323.774 219.933C320.552 226.532 315.009 230.473 305.96 232.467C298.474 234.128 297.337 234.935 291.604 243.102C288.951 246.852 285.587 249.558 281.749 251.078C279.759 251.885 275.922 251.932 227.264 252.17C175.005 252.407 174.911 252.407 172.542 253.452C171.262 253.974 169.225 255.018 168.041 255.683C164.819 257.535 163.161 257.345 160.602 254.781C159.465 253.594 157.854 252.312 157.002 251.885C153.495 250.128 151.932 247.707 151.932 244.194C151.932 242.389 152.216 241.44 153.306 239.968C156.007 236.265 151.6 236.502 216.035 236.502C276.538 236.502 275.211 236.55 279.238 234.413C280.944 233.559 283.076 231.09 285.729 227.007C287.198 224.728 288.382 223.493 290.325 222.354C293.784 220.265 295.063 219.98 303.07 219.648C309.324 219.363 310.177 219.221 312.782 217.986C314.346 217.227 316.573 215.66 317.757 214.473C320.268 211.862 322.116 211.577 323.916 213.476Z" fill="white"/>
<path d="M131.04 328.576V390H118.72V350.048L102.264 390H92.936L76.392 350.048V390H64.072V328.576H78.064L97.6 374.248L117.136 328.576H131.04ZM155.54 338.52V353.92H176.22V363.688H155.54V379.968H178.86V390H143.22V328.488H178.86V338.52H155.54ZM231.856 328.576V338.52H215.488V390H203.168V338.52H186.8V328.576H231.856ZM278.509 378.296H254.045L249.997 390H237.061L259.149 328.488H273.493L295.581 390H282.557L278.509 378.296ZM275.165 368.44L266.277 342.744L257.389 368.44H275.165ZM316.158 380.232H336.398V390H303.838V328.576H316.158V380.232ZM365.436 390.616C361.154 390.616 357.282 389.883 353.82 388.416C350.418 386.949 347.719 384.837 345.724 382.08C343.73 379.323 342.703 376.067 342.644 372.312H355.844C356.02 374.835 356.9 376.829 358.484 378.296C360.127 379.763 362.356 380.496 365.172 380.496C368.047 380.496 370.306 379.821 371.948 378.472C373.591 377.064 374.412 375.245 374.412 373.016C374.412 371.197 373.855 369.701 372.74 368.528C371.626 367.355 370.218 366.445 368.516 365.8C366.874 365.096 364.586 364.333 361.652 363.512C357.663 362.339 354.407 361.195 351.884 360.08C349.42 358.907 347.279 357.176 345.46 354.888C343.7 352.541 342.82 349.432 342.82 345.56C342.82 341.923 343.73 338.755 345.548 336.056C347.367 333.357 349.919 331.304 353.204 329.896C356.49 328.429 360.244 327.696 364.468 327.696C370.804 327.696 375.938 329.251 379.868 332.36C383.858 335.411 386.058 339.693 386.468 345.208H372.916C372.799 343.096 371.89 341.365 370.188 340.016C368.546 338.608 366.346 337.904 363.588 337.904C361.183 337.904 359.247 338.52 357.78 339.752C356.372 340.984 355.668 342.773 355.668 345.12C355.668 346.763 356.196 348.141 357.252 349.256C358.367 350.312 359.716 351.192 361.3 351.896C362.943 352.541 365.231 353.304 368.164 354.184C372.154 355.357 375.41 356.531 377.932 357.704C380.455 358.877 382.626 360.637 384.444 362.984C386.263 365.331 387.172 368.411 387.172 372.224C387.172 375.509 386.322 378.56 384.62 381.376C382.919 384.192 380.426 386.451 377.14 388.152C373.855 389.795 369.954 390.616 365.436 390.616Z" fill="white"/>
</svg>
