<svg width="450" height="450" viewBox="0 0 450 450" fill="none" xmlns="http://www.w3.org/2000/svg">
<path d="M211.44 46.7927C201.348 48.8484 196.089 51.6984 179.412 63.8926C175.384 66.8827 169.32 71.2745 165.909 73.6573C162.545 76.04 158.802 78.7966 157.617 79.731C155.628 81.2728 143.878 89.6826 132.033 97.9522C123.41 103.979 123.884 103.372 112.892 124.957C106.78 136.964 102.753 145.514 102.09 147.804L101 151.448L101.047 203.775C101.095 243.535 101.237 256.944 101.711 259.607C103.937 272.735 112.323 287.312 122.605 296.096C131.038 303.244 141.603 308.243 152.643 310.299C155.722 310.907 166.335 311 224.042 311C290.183 311 291.888 311 296.484 310.066C319.605 305.393 336.851 290.676 344.479 269.045C347.985 259.093 347.748 263.111 347.937 207.046C348.079 171.771 347.985 155.419 347.606 152.662C346.516 144.626 346.058 144.214 335.572 107.063C332.854 89.8934 333.242 89.5108 331.689 81.8601C329.992 73.5021 332.007 57.36 315.377 50.492C311.066 48.7166 299.253 45.0072 286.25 43.6063C261.395 40.9286 243.918 42.0762 234.466 43.6063C222.668 45.516 215.561 45.9517 211.44 46.7927ZM222.668 62.6778C231.954 64.5934 238.872 71.5081 238.872 78.7966C238.872 82.5342 237.64 84.5433 234.466 85.8982C230.723 87.5334 229.728 87.0195 224.753 80.9458C221.436 76.881 214.993 75.8064 207.933 78.1425C204.048 79.4039 201.064 80.9457 195.852 84.2629C191.304 87.2063 189.645 89.0285 187.182 93.8407C182.918 102.204 177.753 105.941 168.988 107.063C164.724 107.623 163.824 107.95 160.555 109.819C153.495 113.884 135.823 121.313 133.123 121.313C131.417 121.313 130.422 120.332 130.849 118.977C130.991 118.463 132.459 117.155 134.023 116.127C138.571 113.043 161.123 96.971 173.252 88.1408C197.605 70.3868 200.211 68.518 203.669 66.4622C210.445 62.3975 216.083 61.2762 222.668 62.6778ZM298.427 92.9063C299.422 93.467 300.748 94.6817 301.317 95.6161L302.359 97.2514V140.936V184.62L300.843 187.797C298.237 193.216 296.152 195.132 292.836 195.132C290.514 195.132 288.856 194.011 287.719 191.675C287.056 190.226 286.961 185.694 286.961 145.374C286.961 114.725 287.103 100.055 287.482 98.6997C288.098 96.2702 290.372 93.4202 292.362 92.5325C294.494 91.6448 296.295 91.7383 298.427 92.9063ZM202.011 127.48C206.986 130.75 206.417 139.067 201.064 141.59C199.595 142.244 196.894 142.337 178.322 142.337H157.286L155.675 141.263C153.211 139.627 151.932 137.431 151.932 134.862C151.932 130.844 154.206 127.48 157.617 126.499C158.66 126.218 167.093 126.078 179.696 126.125L200.069 126.218L202.011 127.48ZM255.454 128.835C258.913 130.096 262.798 133.647 264.267 136.824C265.925 140.422 265.83 145.794 264.125 149.439C262.656 152.616 259.434 155.84 256.307 157.381C254.412 158.269 253.275 158.456 249.532 158.456C244.273 158.456 241.62 157.475 238.303 154.204C229.822 145.841 233.613 131.778 245.268 128.274C247.684 127.573 252.754 127.807 255.454 128.835ZM129.996 136.731C130.849 137.198 131.891 138.179 132.365 138.927C133.17 140.141 133.217 142.711 133.217 187.89C133.217 227.229 133.123 235.732 132.554 236.714C132.222 237.368 129.238 242.133 125.969 247.366C121.041 255.168 119.857 256.804 119.051 256.71L118.056 256.57V202.14V147.71L119.336 145.047C122.131 139.16 125.163 135.843 127.769 135.796C128.148 135.796 129.143 136.217 129.996 136.731ZM191.114 158.176C194.715 159.811 196.8 164.483 195.52 168.221C194.288 171.912 191.209 174.201 187.466 174.201C182.728 174.201 178.938 170.603 178.938 165.978C178.938 163.221 179.791 161.586 182.302 159.484C185.097 157.101 187.798 156.727 191.114 158.176ZM265.072 178.499C271.468 181.816 271.468 190.086 265.072 193.31C263.414 194.151 262.04 194.197 245.742 194.197C226.222 194.197 225.985 194.151 223.663 191.161C222.621 189.759 222.289 188.825 222.147 186.535C221.958 182.798 223.284 180.415 226.316 178.873C228.401 177.845 228.685 177.845 246.121 177.845C260.429 177.845 264.03 177.985 265.072 178.499ZM201.537 194.291C203.669 195.459 205.091 197.702 205.375 200.318C205.659 203.308 205.28 204.616 203.48 206.625C200.779 209.662 201.016 209.615 178.369 209.615C157.996 209.615 157.854 209.569 156.007 208.541C153.259 206.999 152.264 205.411 152.027 202.233C151.742 198.169 153.922 194.852 157.617 193.777C158.66 193.497 167.093 193.356 179.648 193.403C197.984 193.497 200.163 193.59 201.537 194.291ZM279.617 209.896C282.981 211.578 284.545 216.343 282.981 220.034C282.271 221.763 279.38 224.426 277.817 224.8C277.248 224.94 265.546 224.987 251.806 224.94C227.359 224.8 226.838 224.8 225.511 223.819C222.052 221.296 221.057 217.091 223 213.353C224.8 209.896 226.032 209.429 234.371 209.101C238.398 208.961 249.816 208.821 259.718 208.868C276.917 208.915 277.817 208.961 279.617 209.896ZM201.49 225.454C207.081 228.584 206.607 236.62 200.685 239.657C199.216 240.405 197.368 240.451 177.895 240.358C157.286 240.218 156.717 240.171 155.391 239.237C150.984 236.013 150.653 229.986 154.68 226.248C155.485 225.547 156.812 224.753 157.712 224.566C158.565 224.333 168.325 224.192 179.412 224.239L199.547 224.333L201.49 225.454ZM323.916 232.742C325.338 234.237 325.338 236.013 323.774 239.096C320.552 245.591 315.009 249.468 305.96 251.431C298.474 253.066 297.337 253.86 291.604 261.896C288.951 265.587 285.587 268.25 281.749 269.745C279.759 270.54 275.922 270.586 227.264 270.82C175.005 271.054 174.911 271.054 172.542 272.081C171.262 272.595 169.225 273.623 168.041 274.277C164.819 276.099 163.161 275.913 160.602 273.39C159.465 272.222 157.854 270.96 157.002 270.54C153.495 268.811 151.932 266.428 151.932 262.971C151.932 261.195 152.216 260.261 153.306 258.813C156.007 255.168 151.6 255.402 216.035 255.402C276.538 255.402 275.211 255.449 279.238 253.346C280.944 252.505 283.076 250.076 285.729 246.058C287.198 243.815 288.382 242.6 290.325 241.479C293.784 239.423 295.063 239.143 303.07 238.816C309.324 238.536 310.177 238.396 312.782 237.181C314.346 236.433 316.573 234.891 317.757 233.723C320.268 231.154 322.116 230.873 323.916 232.742Z" fill="black"/>
<path d="M111.063 352.456V403H98.7514V372.688L87.4474 403H77.5114L66.1354 372.616V403H53.8234V352.456H68.3674L82.5514 387.448L96.5914 352.456H111.063ZM146.629 362.32V372.544H163.117V382.048H146.629V393.136H165.277V403H134.317V352.456H165.277V362.32H146.629ZM224.03 352.456V362.32H210.638V403H198.326V362.32H184.934V352.456H224.03ZM276.073 394.072H257.209L254.185 403H241.297L259.585 352.456H273.841L292.129 403H279.097L276.073 394.072ZM272.905 384.568L266.641 366.064L260.449 384.568H272.905ZM324.407 393.496H340.535V403H312.095V352.456H324.407V393.496ZM379.096 403.504C375.4 403.504 372.088 402.904 369.16 401.704C366.232 400.504 363.88 398.728 362.104 396.376C360.376 394.024 359.464 391.192 359.368 387.88H372.472C372.664 389.752 373.312 391.192 374.416 392.2C375.52 393.16 376.96 393.64 378.736 393.64C380.56 393.64 382 393.232 383.056 392.416C384.112 391.552 384.64 390.376 384.64 388.888C384.64 387.64 384.208 386.608 383.344 385.792C382.528 384.976 381.496 384.304 380.248 383.776C379.048 383.248 377.32 382.648 375.064 381.976C371.8 380.968 369.136 379.96 367.072 378.952C365.008 377.944 363.232 376.456 361.744 374.488C360.256 372.52 359.512 369.952 359.512 366.784C359.512 362.08 361.216 358.408 364.624 355.768C368.032 353.08 372.472 351.736 377.944 351.736C383.512 351.736 388 353.08 391.408 355.768C394.816 358.408 396.64 362.104 396.88 366.856H383.56C383.464 365.224 382.864 363.952 381.76 363.04C380.656 362.08 379.24 361.6 377.512 361.6C376.024 361.6 374.824 362.008 373.912 362.824C373 363.592 372.544 364.72 372.544 366.208C372.544 367.84 373.312 369.112 374.848 370.024C376.384 370.936 378.784 371.92 382.048 372.976C385.312 374.08 387.952 375.136 389.968 376.144C392.032 377.152 393.808 378.616 395.296 380.536C396.784 382.456 397.528 384.928 397.528 387.952C397.528 390.832 396.784 393.448 395.296 395.8C393.856 398.152 391.744 400.024 388.96 401.416C386.176 402.808 382.888 403.504 379.096 403.504Z" fill="black"/>
</svg>
