<svg width="1034" height="1034" viewBox="0 0 1034 1034" fill="none" xmlns="http://www.w3.org/2000/svg">
<g filter="url(#filter0_i_2_7)">
<path fill-rule="evenodd" clip-rule="evenodd" d="M392.937 2.5023C360.859 8.77428 333.032 22.9614 303.056 48.326C276.705 70.6261 256.559 82.5766 226.927 93.4895C152.616 120.857 122.943 150.19 95.1947 223.714C83.5046 254.686 74.574 270.66 56.8159 292.348C3.79364 357.103 -8.06398 398.364 5.13606 472.183C11.7209 509.007 11.725 522.314 5.1603 560.007C-7.15758 630.739 5.42878 679.316 49.8353 732.417C74.3641 761.748 82.4529 775.368 94.8677 808.244C122.681 881.891 151.469 910.8 224.327 938.244C256.028 950.186 271.739 959.088 294.023 977.737C354.835 1028.63 398.479 1041.05 471.934 1028.38C510.777 1021.67 529.833 1021.66 562.846 1028.34C626.392 1041.19 678.827 1027.9 728.276 986.405C757.145 962.183 775.771 950.156 795.033 943.305C849.733 923.845 865.88 914.853 890.7 890.034C915.519 865.215 924.51 849.067 943.97 794.367C950.739 775.34 963.283 755.666 984.083 731.452C1028.48 679.772 1042.03 628.447 1028.82 562.035C1025.74 546.558 1023.77 529.747 1023.77 518.907C1023.77 509.134 1026.04 487.303 1028.82 470.388C1040.86 396.977 1028.67 353.098 980.593 296.928C957.953 270.478 957.4 270.232 931.606 275.305C883.071 284.847 839.563 258.955 821.855 209.995C816.483 195.143 812.541 191.57 793.483 184.289C748.44 167.078 723.829 124.139 732.335 77.6168C741.811 25.8078 657.199 -10.5161 562.505 4.71273C524.104 10.8878 493.63 10.8777 472.675 4.68649C457.301 0.142479 411.428 -1.11313 392.937 2.5023Z" fill="#F6B678"/>
</g>
<path fill-rule="evenodd" clip-rule="evenodd" d="M355.683 150.877C277.589 170.176 298.789 258.634 380.555 254.657C424.231 252.531 453.463 221.462 442.588 188.723C432.873 159.469 392.34 141.818 355.683 150.877ZM641.128 243.136C604.11 248.627 590.314 282.593 615.959 305.109C644.764 330.399 697.846 313.246 697.846 278.647C697.846 256.136 670.195 238.824 641.128 243.136ZM143.4 389.017C95.4307 404.714 109.82 459.741 161.891 459.741C223.022 459.741 226.19 390.212 165.208 386.978C157.375 386.564 148.304 387.41 143.4 389.017ZM311 489.534C293.468 498.025 298.369 543.746 316.981 545.33C328.663 546.325 332.842 537.855 332.061 514.756C331.287 491.858 324.065 483.208 311 489.534ZM682.315 492.046C668.114 504.256 675.132 546.693 691.128 545.33C714.226 543.364 712.932 487.175 689.79 487.175C688.793 487.175 685.43 489.367 682.315 492.046ZM439.795 525.024C424.937 537.681 446.602 562.069 480.84 571.23C509.602 578.923 545.742 570.089 565.119 550.627C583.356 532.312 566.944 512.073 545.601 526.557C516.019 546.632 492.09 546.632 462.509 526.557C453.768 520.626 445.604 520.075 439.795 525.024ZM852.809 524.714C833.234 530.733 820.563 549.828 825.141 566.407C834.09 598.817 887.262 606.691 911.411 579.185C937.73 549.212 896.814 511.178 852.809 524.714ZM211.348 655.594C136.607 676.39 153.528 758.685 232.544 758.685C312.211 758.685 328.443 675.673 252.731 655.448C240.395 652.154 223.499 652.212 211.348 655.594ZM706.276 741.554C627.833 758.011 641.15 846.497 722.07 846.497C795.54 846.497 817.525 770.5 751.232 745.697C738.337 740.872 718.322 739.027 706.276 741.554ZM434.411 811.937C400.564 820.874 388.934 849.999 410.724 871.264C441.292 901.099 504.123 878.18 494.074 840.861C488.628 820.636 457.896 805.736 434.411 811.937Z" fill="#352525"/>
<defs>
<filter id="filter0_i_2_7" x="0.183105" y="0.400452" width="1033.47" height="1032.65" filterUnits="userSpaceOnUse" color-interpolation-filters="sRGB">
<feFlood flood-opacity="0" result="BackgroundImageFix"/>
<feBlend mode="normal" in="SourceGraphic" in2="BackgroundImageFix" result="shape"/>
<feColorMatrix in="SourceAlpha" type="matrix" values="0 0 0 0 0 0 0 0 0 0 0 0 0 0 0 0 0 0 127 0" result="hardAlpha"/>
<feOffset dx="41"/>
<feComposite in2="hardAlpha" operator="arithmetic" k2="-1" k3="1"/>
<feColorMatrix type="matrix" values="0 0 0 0 0.862745 0 0 0 0 0.643137 0 0 0 0 0.419608 0 0 0 1 0"/>
<feBlend mode="normal" in2="shape" result="effect1_innerShadow_2_7"/>
</filter>
</defs>
</svg>
